<svg viewBox="0 0 67 67" fill="none" xmlns="http://www.w3.org/2000/svg">
<path d="M58.8483 62.5333H55.1633C54.8283 62.5333 54.6049 62.4216 54.3816 62.1983L51.8133 59.6299C51.5899 59.4066 51.4783 59.1833 51.4783 58.8483V55.1633C51.4783 54.8283 51.5899 54.6049 51.8133 54.3816L54.3816 51.8133C54.6049 51.5899 54.8283 51.4783 55.1633 51.4783H58.8483C59.1833 51.4783 59.4066 51.5899 59.6299 51.8133L62.1983 54.3816C62.4216 54.6049 62.5333 54.8283 62.5333 55.1633V58.8483C62.5333 59.1833 62.4216 59.4066 62.1983 59.6299L59.6299 62.1983C59.4066 62.4216 59.0716 62.5333 58.8483 62.5333ZM55.6099 60.2999H58.4016L60.4116 58.2899V55.4983L58.2899 53.5999H55.4983L53.5999 55.6099V58.4016L55.6099 60.2999Z" fill="#1D1D1D"/>
<path d="M66.665 52.4834L61.4167 47.235C61.1934 47.0117 60.97 46.9 60.635 46.9H53.265C52.93 46.9 52.7067 47.0117 52.4834 47.235L47.235 52.4834H18.9834C17.3084 49.0217 13.8467 46.9 10.05 46.9C6.4767 46.9 3.1267 48.7984 1.34003 51.925V52.0367C1.34003 52.1484 1.34003 52.1484 1.22837 52.26V52.93C1.22837 53.0417 1.34003 53.0417 1.34003 53.1534C1.34003 53.265 1.4517 53.265 1.4517 53.3767C1.4517 53.4884 1.56337 53.4884 1.67503 53.4884L1.7867 53.6H1.89837C2.01003 53.6 2.01003 53.6 2.1217 53.7117C2.1217 53.6 2.23337 53.6 2.23337 53.6H10.05V60.3H2.01003C1.89837 60.3 1.89837 60.3 1.7867 60.4117H1.67503L1.56337 60.5234C1.4517 60.5234 1.4517 60.635 1.34003 60.635C1.34003 60.635 1.22837 60.7467 1.22837 60.8584C1.22837 60.97 1.1167 60.97 1.1167 61.0817V61.7517C1.1167 61.8634 1.1167 61.8634 1.22837 61.975V62.0867C3.1267 65.1017 6.4767 67 10.05 67C13.8467 67 17.3084 64.8784 18.9834 61.4167H47.1234L52.3717 66.665C52.595 66.8884 52.8184 67 53.1534 67H60.5234C60.8584 67 61.0817 66.8884 61.305 66.665L66.5534 61.4167C66.7767 61.1934 66.8884 60.97 66.8884 60.635V53.265C67 52.93 66.8884 52.7067 66.665 52.4834ZM19.8767 54.7167H46.9V59.1834H19.8767C19.9884 58.4017 20.1 57.7317 20.1 56.95C20.1 56.1684 19.9884 55.4984 19.8767 54.7167ZM10.05 64.7667C7.92837 64.7667 6.03003 63.985 4.57837 62.5334H11.1667C11.8367 62.5334 12.2834 62.0867 12.2834 61.4167V52.4834C12.2834 51.8134 11.8367 51.3667 11.1667 51.3667H4.57837C6.03003 49.915 7.92837 49.1334 10.05 49.1334C13.2884 49.1334 16.08 51.0317 17.3084 54.0467C17.6434 54.94 17.8667 55.945 17.8667 56.95C17.8667 57.955 17.6434 58.96 17.3084 59.8534C16.08 62.8684 13.2884 64.7667 10.05 64.7667ZM64.7667 60.1884L60.1884 64.7667H53.7117L49.1334 60.1884V53.7117L53.7117 49.1334H60.1884L64.7667 53.7117V60.1884Z" fill="#1D1D1D"/>
<path d="M46.9001 30.1499H44.1084C43.8851 29.4799 43.6617 28.9216 43.3267 28.3633L45.2251 26.4649C45.4484 26.2416 45.5601 26.0183 45.5601 25.6833C45.5601 25.3483 45.4484 25.1249 45.2251 24.9016L42.0984 21.7749C41.6517 21.3283 40.9817 21.3283 40.5351 21.7749L38.6367 23.6733C38.0784 23.3383 37.4084 23.1149 36.8501 22.8916V20.0999C36.8501 19.4299 36.4034 18.9833 35.7334 18.9833H31.2667C30.5967 18.9833 30.1501 19.4299 30.1501 20.0999V22.8916C29.4801 23.1149 28.9217 23.3383 28.3634 23.6733L26.4651 21.7749C26.0184 21.3283 25.3484 21.3283 24.9017 21.7749L21.7751 24.9016C21.3284 25.3483 21.3284 26.0183 21.7751 26.4649L23.6734 28.3633C23.3384 28.9216 23.1151 29.5916 22.8917 30.1499H20.1001C19.4301 30.1499 18.9834 30.5966 18.9834 31.2666V35.7333C18.9834 36.4033 19.4301 36.8499 20.1001 36.8499H22.8917C23.1151 37.5199 23.3384 38.0783 23.6734 38.6366L21.7751 40.5349C21.3284 40.9816 21.3284 41.6516 21.7751 42.0983L24.9017 45.2249C25.1251 45.4483 25.3484 45.5599 25.6834 45.5599C26.0184 45.5599 26.2417 45.4483 26.4651 45.2249L28.3634 43.3266C28.9217 43.6616 29.5917 43.8849 30.1501 44.1083V46.8999C30.1501 47.5699 30.5967 48.0166 31.2667 48.0166H35.7334C36.4034 48.0166 36.8501 47.5699 36.8501 46.8999V44.1083C37.5201 43.8849 38.0784 43.6616 38.6367 43.3266L40.5351 45.2249C40.7584 45.4483 41.0934 45.5599 41.3167 45.5599C41.5401 45.5599 41.8751 45.4483 42.0984 45.2249L45.2251 42.0983C45.6717 41.6516 45.6717 40.9816 45.2251 40.5349L43.3267 38.6366C43.6617 38.0783 43.8851 37.4083 44.1084 36.8499H46.9001C47.5701 36.8499 48.0167 36.4033 48.0167 35.7333V31.2666C48.0167 30.5966 47.5701 30.1499 46.9001 30.1499ZM45.7834 34.6166H42.9917C42.8801 34.6166 42.8801 34.6166 42.7684 34.7283C42.6567 34.7283 42.6567 34.8399 42.5451 34.8399C42.4334 34.8399 42.4334 34.9516 42.4334 34.9516C42.4334 34.9516 42.3217 35.0633 42.3217 35.1749C42.3217 35.2866 42.2101 35.2866 42.2101 35.3983V35.5099C41.9867 36.5149 41.5401 37.4083 41.0934 38.3016V38.4133C41.0934 38.5249 40.9817 38.5249 40.9817 38.6366V39.3066C40.9817 39.4183 40.9817 39.4183 41.0934 39.5299C41.0934 39.6416 41.2051 39.6416 41.2051 39.7533V39.8649L42.9917 41.6516L41.4284 43.2149L39.6417 41.4283H39.5301C39.4184 41.4283 39.4184 41.3166 39.3067 41.3166C39.1951 41.3166 39.1951 41.2049 39.0834 41.2049H38.4134C38.3017 41.2049 38.3017 41.2049 38.1901 41.3166H38.0784C37.1851 41.8749 36.2917 42.2099 35.2867 42.4333H35.1751C35.0634 42.4333 35.0634 42.4333 34.9517 42.5449C34.8401 42.5449 34.8401 42.6566 34.7284 42.6566L34.6167 42.7683C34.6167 42.8799 34.5051 42.8799 34.5051 42.9916C34.5051 43.1033 34.5051 43.1033 34.3934 43.2149V45.7833H32.1601V42.9916C32.1601 42.8799 32.1601 42.8799 32.0484 42.7683C32.0484 42.6566 31.9367 42.6566 31.9367 42.5449C31.9367 42.4333 31.8251 42.4333 31.8251 42.4333C31.8251 42.4333 31.7134 42.3216 31.6017 42.3216C31.4901 42.3216 31.4901 42.2099 31.3784 42.2099H31.2667C30.2617 41.9866 29.3684 41.5399 28.4751 41.0933H28.3634C28.2517 41.0933 28.2517 40.9816 28.1401 40.9816H27.4701C27.3584 40.9816 27.3584 40.9816 27.2467 41.0933C27.1351 41.0933 27.1351 41.2049 27.0234 41.2049H26.9117L25.1251 42.9916L23.5617 41.4283L25.3484 39.6416V39.5299C25.3484 39.4183 25.4601 39.4183 25.4601 39.3066C25.4601 39.1949 25.5717 39.1949 25.5717 39.0833V38.4133C25.5717 38.3016 25.5717 38.3016 25.4601 38.1899V38.0783C24.9017 37.1849 24.5667 36.2916 24.3434 35.2866V35.1749C24.3434 35.0633 24.3434 35.0633 24.2317 34.9516C24.2317 34.8399 24.1201 34.8399 24.1201 34.7283L24.0084 34.6166C23.8967 34.6166 23.8967 34.5049 23.7851 34.5049C23.6734 34.5049 23.6734 34.5049 23.5617 34.3933H21.2167V32.1599H23.6734C23.7851 32.1599 23.8967 32.1599 24.1201 32.0483C24.1201 32.0483 24.2317 32.0483 24.2317 31.9366C24.3434 31.9366 24.3434 31.8249 24.4551 31.8249L24.5667 31.7133C24.5667 31.6016 24.6784 31.6016 24.6784 31.4899C24.6784 31.4899 24.6784 31.3783 24.7901 31.3783V31.2666C25.0134 30.2616 25.4601 29.3683 25.9067 28.4749V28.3633C25.9067 28.2516 26.0184 28.2516 26.0184 28.1399V27.4699C26.0184 27.3583 26.0184 27.3583 25.9067 27.2466C25.9067 27.1349 25.7951 27.1349 25.7951 27.0233V26.9116L24.0084 25.1249L25.5717 23.5616L27.3584 25.3483C27.4701 25.4599 27.5817 25.4599 27.6934 25.5716H27.8051C27.9167 25.5716 28.0284 25.6833 28.1401 25.6833C28.2517 25.6833 28.3634 25.6833 28.4751 25.5716H28.6984C29.5917 25.0133 30.4851 24.6783 31.4901 24.4549H31.6017C31.7134 24.4549 31.7134 24.4549 31.8251 24.3433C31.9367 24.3433 31.9367 24.2316 32.0484 24.2316L32.1601 24.1199C32.1601 24.0083 32.2717 24.0083 32.2717 23.8966C32.2717 23.7849 32.2717 23.7849 32.3834 23.6733V21.2166H34.6167V24.0083C34.6167 24.1199 34.6167 24.1199 34.7284 24.2316C34.7284 24.3433 34.8401 24.3433 34.8401 24.4549C34.8401 24.5666 34.9517 24.5666 34.9517 24.5666C34.9517 24.5666 35.0634 24.6783 35.1751 24.6783C35.2867 24.6783 35.2867 24.7899 35.3984 24.7899H35.5101C36.5151 25.0133 37.4084 25.4599 38.3017 25.9066H38.5251C38.6367 25.9066 38.7484 26.0183 38.8601 26.0183C38.9717 26.0183 39.0834 26.0183 39.1951 25.9066H39.3067C39.4184 25.9066 39.5301 25.7949 39.6417 25.6833L41.4284 23.8966L42.9917 25.4599L41.2051 27.2466V27.3583C41.2051 27.4699 41.0934 27.4699 41.0934 27.5816C41.0934 27.6933 40.9817 27.6933 40.9817 27.8049V28.4749C40.9817 28.5866 40.9817 28.5866 41.0934 28.6983V28.8099C41.6517 29.7033 41.9867 30.5966 42.2101 31.6016V31.7133C42.2101 31.7133 42.2101 31.8249 42.3217 31.8249C42.3217 31.9366 42.4334 31.9366 42.4334 32.0483L42.5451 32.1599C42.6567 32.2716 42.6567 32.2716 42.7684 32.2716C42.7684 32.2716 42.8801 32.2716 42.8801 32.3833C42.9917 32.3833 43.1034 32.4949 43.3267 32.4949H45.7834V34.6166Z" fill="#1D1D1D"/>
<path d="M33.5 37.9667C31.0433 37.9667 29.0333 35.9567 29.0333 33.5C29.0333 31.0433 31.0433 29.0333 33.5 29.0333C35.9567 29.0333 37.9667 31.0433 37.9667 33.5C37.9667 35.9567 35.9567 37.9667 33.5 37.9667ZM33.5 31.2667C32.2717 31.2667 31.2667 32.2717 31.2667 33.5C31.2667 34.7283 32.2717 35.7333 33.5 35.7333C34.7283 35.7333 35.7333 34.7283 35.7333 33.5C35.7333 32.2717 34.7283 31.2667 33.5 31.2667ZM66.5533 6.92333L63.2033 4.69C62.98 4.57833 62.7567 4.46667 62.5333 4.46667H37.9667V2.23333C37.9667 1.56333 37.52 1.11667 36.85 1.11667H32.3833C31.7133 1.11667 31.2667 1.56333 31.2667 2.23333H28.81C28.3633 0.893333 27.135 0 25.6833 0H7.81667C6.365 0 5.13667 0.893333 4.69 2.23333H3.35C1.45167 2.23333 0 3.685 0 5.58333V10.05C0 11.9483 1.45167 13.4 3.35 13.4H4.69C5.13667 14.74 6.365 15.6333 7.81667 15.6333H25.6833C27.135 15.6333 28.3633 14.74 28.81 13.4H31.2667C31.2667 14.07 31.7133 14.5167 32.3833 14.5167H36.85C37.52 14.5167 37.9667 14.07 37.9667 13.4V11.1667H62.5333C62.7567 11.1667 62.98 11.055 63.2033 10.9433L66.5533 8.71C66.7767 8.48667 67 8.15167 67 7.81667C67 7.48167 66.7767 7.14667 66.5533 6.92333ZM22.3333 2.23333V3.35C22.3333 4.02 21.8867 4.46667 21.2167 4.46667H12.2833C11.6133 4.46667 11.1667 4.02 11.1667 3.35V2.23333H22.3333ZM2.23333 10.05V5.58333C2.23333 4.91333 2.68 4.46667 3.35 4.46667H4.46667V11.1667H3.35C2.68 11.1667 2.23333 10.72 2.23333 10.05ZM11.1667 13.4V12.2833C11.1667 11.6133 11.6133 11.1667 12.2833 11.1667H21.2167C21.8867 11.1667 22.3333 11.6133 22.3333 12.2833V13.4H11.1667ZM25.6833 13.4H24.5667V12.2833C24.5667 10.385 23.115 8.93333 21.2167 8.93333H12.2833C10.385 8.93333 8.93333 10.385 8.93333 12.2833V13.4H7.81667C7.14667 13.4 6.7 12.9533 6.7 12.2833V3.35C6.7 2.68 7.14667 2.23333 7.81667 2.23333H8.93333V3.35C8.93333 5.24833 10.385 6.7 12.2833 6.7H21.2167C23.115 6.7 24.5667 5.24833 24.5667 3.35V2.23333H25.6833C26.3533 2.23333 26.8 2.68 26.8 3.35V12.2833C26.8 12.9533 26.3533 13.4 25.6833 13.4ZM29.0333 11.1667V4.46667H31.2667V11.1667H29.0333ZM35.7333 12.2833H33.5V3.35H35.7333V10.05V12.2833ZM62.1983 8.93333H37.9667V6.7H62.1983L63.8733 7.81667L62.1983 8.93333ZM11.725 41.3167H6.14167C5.80667 41.3167 5.58333 41.205 5.36 40.9817L1.45167 37.0733C1.22833 36.85 1.11667 36.6267 1.11667 36.2917V30.7083C1.11667 30.3733 1.22833 30.15 1.45167 29.9267L5.36 26.0183C5.58333 25.795 5.80667 25.6833 6.14167 25.6833H11.725C12.06 25.6833 12.2833 25.795 12.5067 26.0183L16.415 29.9267C16.6383 30.15 16.75 30.3733 16.75 30.7083V36.2917C16.75 36.6267 16.6383 36.85 16.415 37.0733L12.5067 40.9817C12.2833 41.205 12.06 41.3167 11.725 41.3167ZM6.58833 39.0833H11.1667L14.405 35.845V31.2667L11.2783 27.9167H6.58833L3.35 31.155V35.7333L6.58833 39.0833Z" fill="#1D1D1D"/>
<path d="M8.93325 36.85C7.03492 36.85 5.58325 35.3983 5.58325 33.5C5.58325 31.6017 7.03492 30.15 8.93325 30.15C10.8316 30.15 12.2833 31.6017 12.2833 33.5C12.2833 35.3983 10.8316 36.85 8.93325 36.85ZM8.93325 32.3833C8.26325 32.3833 7.81659 32.83 7.81659 33.5C7.81659 34.17 8.26325 34.6167 8.93325 34.6167C9.60325 34.6167 10.0499 34.17 10.0499 33.5C10.0499 32.83 9.60325 32.3833 8.93325 32.3833ZM60.8583 41.3167H55.2749C54.9399 41.3167 54.7166 41.205 54.4933 40.9817L50.5849 37.0734C50.3616 36.85 50.2499 36.6267 50.2499 36.2917V30.7083C50.2499 30.3733 50.3616 30.15 50.5849 29.9267L54.4933 26.0183C54.7166 25.795 54.9399 25.6833 55.2749 25.6833H60.8583C61.1933 25.6833 61.4166 25.795 61.6399 26.0183L65.5483 29.9267C65.7716 30.15 65.8833 30.3733 65.8833 30.7083V36.2917C65.8833 36.6267 65.7716 36.85 65.5483 37.0734L61.6399 40.9817C61.4166 41.205 61.1933 41.3167 60.8583 41.3167ZM55.7216 39.0833H60.2999L63.5383 35.845V31.2667L60.4116 27.9167H55.8333L52.4833 31.155V35.7333L55.7216 39.0833Z" fill="#1D1D1D"/>
<path d="M58.0666 36.85C56.1682 36.85 54.7166 35.3984 54.7166 33.5C54.7166 31.6017 56.1682 30.15 58.0666 30.15C59.9649 30.15 61.4166 31.6017 61.4166 33.5C61.4166 35.3984 59.9649 36.85 58.0666 36.85ZM58.0666 32.3834C57.3966 32.3834 56.9499 32.83 56.9499 33.5C56.9499 34.17 57.3966 34.6167 58.0666 34.6167C58.7366 34.6167 59.1832 34.17 59.1832 33.5C59.1832 32.83 58.7366 32.3834 58.0666 32.3834Z" fill="#1D1D1D"/>
</svg>
